Coordinates
version=1
nRows=42
nColumns=38
inDegrees=no

Units are S.I. units (second, meters, Newtons, ...)
If the header above contains a line with 'inDegrees', this indicates whether rotational values are in degrees (yes) or radians (no).

endheader
time	pelvis_tilt	pelvis_list	pelvis_rotation	pelvis_tx	pelvis_ty	pelvis_tz	hip_flexion_r	hip_adduction_r	hip_rotation_r	knee_angle_r	ankle_angle_r	subtalar_angle_r	mtp_angle_r	hip_flexion_l	hip_adduction_l	hip_rotation_l	knee_angle_l	ankle_angle_l	subtalar_angle_l	mtp_angle_l	lumbar_extension	lumbar_bending	lumbar_rotation	arm_flex_r	arm_add_r	arm_rot_r	elbow_flex_r	pro_sup_r	wrist_flex_r	wrist_dev_r	arm_flex_l	arm_add_l	arm_rot_l	elbow_flex_l	pro_sup_l	wrist_flex_l	wrist_dev_l
5	1.96856	1.36961	-0.296713	0.692464	1.03783	0.971745	0.195598	0.13691	-0.367674	0.379344	0.0224204	0	0	-0.119606	-0.235171	-0.0325605	0.86112	0.000505806	0	0	-0.188903	0.249628	-0.00616101	0.552562	-0.28086	0.316642	1.44579	1.5708	0	0	0.71713	-0.26308	0.557717	1.05488	1.5708	0	0
5.01	1.99449	1.36824	-0.326043	0.694207	1.04428	0.973171	0.177539	0.141432	-0.363448	0.370204	0.0263314	0	0	-0.107147	-0.23523	-0.0353007	0.894504	0.00498599	0	0	-0.196825	0.24805	-0.00107366	0.553323	-0.278913	0.316079	1.44424	1.5708	0	0	0.719025	-0.26426	0.559665	1.05405	1.5708	0	0
5.02	2.01986	1.36689	-0.355474	0.695911	1.05061	0.974575	0.159446	0.145597	-0.359476	0.360872	0.0301934	0	0	-0.0952995	-0.234576	-0.038383	0.925012	0.0156977	0	0	-0.20478	0.246225	0.00430583	0.554182	-0.276991	0.315068	1.44218	1.5708	0	0	0.720962	-0.265378	0.561635	1.05333	1.5708	0	0
5.03	2.04378	1.36616	-0.38409	0.697591	1.05687	0.975942	0.141818	0.149027	-0.354756	0.351236	0.0338081	0	0	-0.0837441	-0.23259	-0.041343	0.951535	0.0301175	0	0	-0.212214	0.243617	0.00972018	0.555266	-0.274733	0.314215	1.43956	1.5708	0	0	0.722707	-0.26656	0.563264	1.05271	1.5708	0	0
5.04	2.06626	1.36584	-0.411951	0.699201	1.06302	0.977253	0.125057	0.151712	-0.34925	0.342058	0.036943	0	0	-0.072372	-0.229599	-0.0443846	0.973954	0.0449201	0	0	-0.219232	0.240535	0.015313	0.556393	-0.272675	0.313559	1.43652	1.5708	0	0	0.724679	-0.267737	0.5654	1.05189	1.5708	0	0
5.05	2.0998	1.36824	-0.447451	0.701878	1.069	0.978574	0.10947	0.155217	-0.339039	0.334971	0.0369121	0	0	-0.0595406	-0.237809	-0.0500288	0.991649	0.0669795	0	0	-0.22632	0.23134	0.0196411	0.556232	-0.268274	0.314053	1.43422	1.5708	0	0	0.727363	-0.268105	0.569815	1.05063	1.5708	0	0
5.06	2.1184	1.36908	-0.471518	0.703452	1.07498	0.979736	0.0949457	0.156619	-0.33228	0.326865	0.0393903	0	0	-0.0469728	-0.234209	-0.0529435	1.00685	0.078441	0	0	-0.231671	0.227107	0.0246894	0.557446	-0.265951	0.31321	1.43131	1.5708	0	0	0.729505	-0.269646	0.574145	1.048	1.5708	0	0
5.07	2.13498	1.37025	-0.493321	0.70495	1.08087	0.980812	0.0813442	0.157465	-0.325758	0.319188	0.0421125	0	0	-0.0339618	-0.230042	-0.0552098	1.01843	0.0875379	0	0	-0.236252	0.222874	0.0290982	0.559103	-0.264417	0.314624	1.42817	1.5708	0	0	0.730907	-0.271614	0.57831	1.04533	1.5708	0	0
5.08	2.15031	1.3716	-0.513286	0.706326	1.08671	0.9818	0.0684471	0.157794	-0.320187	0.312035	0.0453529	0	0	-0.0206021	-0.225331	-0.0558993	1.02655	0.0952557	0	0	-0.240204	0.218779	0.0326144	0.560512	-0.262765	0.31705	1.42459	1.5708	0	0	0.731482	-0.274047	0.581812	1.04268	1.5708	0	0
5.09	2.16485	1.3729	-0.531801	0.707602	1.09246	0.982701	0.0559812	0.157919	-0.315287	0.305235	0.048553	0	0	-0.00711067	-0.220535	-0.0555743	1.03125	0.102581	0	0	-0.243841	0.214933	0.03531	0.561746	-0.260767	0.320162	1.42081	1.5708	0	0	0.731443	-0.276806	0.583732	1.04028	1.5708	0	0
5.1	2.17938	1.37413	-0.549904	0.708821	1.09814	0.983534	0.0433989	0.158093	-0.309906	0.297939	0.050802	0	0	0.00603986	-0.215857	-0.0552209	1.03221	0.110096	0	0	-0.247449	0.211212	0.0376202	0.56343	-0.259014	0.324649	1.41748	1.5708	0	0	0.73115	-0.279683	0.583636	1.03824	1.5708	0	0
5.11	2.19448	1.37543	-0.568453	0.709955	1.10377	0.984301	0.0310347	0.15785	-0.304576	0.290982	0.0529915	0	0	0.018657	-0.210904	-0.0550068	1.02944	0.116746	0	0	-0.251138	0.20743	0.0399159	0.565306	-0.257728	0.330309	1.41471	1.5708	0	0	0.730886	-0.282395	0.581243	1.03638	1.5708	0	0
5.12	2.21183	1.37635	-0.589479	0.711071	1.10936	0.985051	0.0182057	0.157518	-0.299015	0.284121	0.0555563	0	0	0.0297765	-0.206305	-0.055962	1.02293	0.122668	0	0	-0.255478	0.203615	0.0427058	0.56746	-0.256125	0.336309	1.41233	1.5708	0	0	0.730991	-0.284917	0.577561	1.03408	1.5708	0	0
5.13	2.23036	1.37671	-0.611894	0.712228	1.11496	0.985767	0.00471221	0.157608	-0.29296	0.276896	0.0581353	0	0	0.0393932	-0.202506	-0.0583379	1.01277	0.128156	0	0	-0.260307	0.199918	0.046233	0.569801	-0.253515	0.341481	1.41012	1.5708	0	0	0.731637	-0.287302	0.57355	1.03084	1.5708	0	0
5.14	2.25178	1.37678	-0.63743	0.713362	1.12055	0.986476	-0.00949507	0.157474	-0.286365	0.269448	0.0606071	0	0	0.0472016	-0.198673	-0.061587	0.998629	0.133107	0	0	-0.265803	0.196007	0.0505133	0.572358	-0.250856	0.347019	1.40794	1.5708	0	0	0.733111	-0.289502	0.570662	1.02617	1.5708	0	0
5.15	2.26702	1.37745	-0.656365	0.714405	1.12592	0.987015	-0.0212136	0.157029	-0.280681	0.263289	0.0626688	0	0	0.0564408	-0.194852	-0.0638517	0.982097	0.136531	0	0	-0.270204	0.192527	0.0549708	0.575045	-0.248333	0.352346	1.40648	1.5708	0	0	0.735444	-0.291649	0.569174	1.02086	1.5708	0	0
5.16	2.2837	1.37809	-0.677057	0.715437	1.13124	0.987529	-0.0328971	0.156237	-0.274393	0.257444	0.0649823	0	0	0.0644534	-0.191255	-0.0679535	0.962067	0.138747	0	0	-0.274924	0.188735	0.0601579	0.577385	-0.245229	0.356475	1.40556	1.5708	0	0	0.738492	-0.293799	0.569107	1.01536	1.5708	0	0
5.17	2.30123	1.37863	-0.699223	0.716486	1.13655	0.988017	-0.0443934	0.155182	-0.26756	0.252202	0.0674349	0	0	0.0709795	-0.187999	-0.0738249	0.938623	0.141038	0	0	-0.279864	0.184602	0.06622	0.579225	-0.241513	0.359301	1.40519	1.5708	0	0	0.741897	-0.296187	0.569802	1.01059	1.5708	0	0
5.18	2.31263	1.37979	-0.715158	0.717465	1.14175	0.988353	-0.0534454	0.15397	-0.26165	0.248651	0.0703069	0	0	0.0783366	-0.184848	-0.0791884	0.912702	0.143723	0	0	-0.283562	0.180835	0.0720458	0.580627	-0.23744	0.361412	1.40519	1.5708	0	0	0.744888	-0.299057	0.570145	1.00703	1.5708	0	0
5.19	2.31829	1.38113	-0.724472	0.718647	1.14703	0.988549	-0.0608932	0.153308	-0.256171	0.246	0.0728624	0	0	0.0862848	-0.182635	-0.084867	0.884314	0.146698	0	0	-0.286079	0.177494	0.0768072	0.580931	-0.232826	0.363081	1.40567	1.5708	0	0	0.747698	-0.30246	0.570831	1.00393	1.5708	0	0
5.2	2.325	1.38267	-0.735127	0.719495	1.15226	0.988721	-0.0682994	0.152096	-0.251595	0.243579	0.0759992	0	0	0.0930225	-0.180039	-0.0913566	0.853183	0.146914	0	0	-0.288577	0.174251	0.0817453	0.580627	-0.228267	0.364134	1.40648	1.5708	0	0	0.750287	-0.306174	0.573047	1.00114	1.5708	0	0
5.21	2.32944	1.3844	-0.743204	0.720263	1.1574	0.988826	-0.0747508	0.150746	-0.2475	0.24177	0.0792453	0	0	0.0996406	-0.17766	-0.0982972	0.820368	0.146968	0	0	-0.290741	0.171364	0.0862137	0.579969	-0.2236	0.364053	1.40759	1.5708	0	0	0.753133	-0.309945	0.576142	0.999051	1.5708	0	0
5.22	2.33172	1.38635	-0.74872	0.720843	1.16241	0.988877	-0.0803553	0.14941	-0.243746	0.24024	0.0825125	0	0	0.106213	-0.175226	-0.105052	0.7857	0.146341	0	0	-0.292645	0.168734	0.0901632	0.5791	-0.218802	0.362583	1.40872	1.5708	0	0	0.756188	-0.313684	0.579365	0.997643	1.5708	0	0
5.23	2.33273	1.38822	-0.752829	0.72141	1.1674	0.988889	-0.0858286	0.148283	-0.240143	0.238632	0.085846	0	0	0.112074	-0.172967	-0.111797	0.749376	0.145084	0	0	-0.294362	0.166378	0.0937294	0.578263	-0.213902	0.360414	1.40959	1.5708	0	0	0.759055	-0.317348	0.581849	0.99695	1.5708	0	0
5.24	2.33572	1.38979	-0.759354	0.722006	1.17247	0.988891	-0.0920007	0.147103	-0.236448	0.236903	0.0896528	0	0	0.116156	-0.170768	-0.12023	0.710874	0.142757	0	0	-0.296494	0.163775	0.0975072	0.57763	-0.208797	0.357414	1.4104	1.5708	0	0	0.762116	-0.320827	0.584037	0.996323	1.5708	0	0
5.25	2.33444	1.39115	-0.760681	0.722424	1.17759	0.988778	-0.0978027	0.146564	-0.233615	0.234787	0.0931586	0	0	0.120645	-0.168933	-0.127873	0.671838	0.140085	0	0	-0.298015	0.162351	0.100072	0.577796	-0.203987	0.354811	1.41095	1.5708	0	0	0.765067	-0.323852	0.58568	0.995718	1.5708	0	0
5.26	2.33029	1.39262	-0.75824	0.722574	1.18249	0.988547	-0.103114	0.146219	-0.231777	0.232772	0.0966234	0	0	0.125425	-0.16706	-0.13443	0.632264	0.136388	0	0	-0.298965	0.161612	0.10169	0.578677	-0.199845	0.35267	1.41112	1.5708	0	0	0.768261	-0.326295	0.587749	0.995001	1.5708	0	0
5.27	2.32457	1.39402	-0.754008	0.722687	1.18761	0.988217	-0.108102	0.145972	-0.230589	0.23081	0.100635	0	0	0.130107	-0.16525	-0.141138	0.592134	0.131165	0	0	-0.299533	0.161202	0.103076	0.58021	-0.195873	0.350002	1.4107	1.5708	0	0	0.771544	-0.328114	0.589651	0.994482	1.5708	0	0
5.28	2.3172	1.39553	-0.748972	0.7228	1.19262	0.987817	-0.113093	0.145811	-0.228172	0.22852	0.104624	0	0	0.134283	-0.163681	-0.149865	0.551703	0.124788	0	0	-0.299719	0.160584	0.105271	0.581939	-0.192399	0.346629	1.41022	1.5708	0	0	0.774758	-0.329337	0.591422	0.994691	1.5708	0	0
5.29	2.30767	1.39718	-0.741546	0.722803	1.1976	0.987331	-0.117546	0.14561	-0.225441	0.226555	0.107837	0	0	0.138728	-0.161861	-0.158553	0.511612	0.117312	0	0	-0.299428	0.16031	0.107229	0.584427	-0.190177	0.343865	1.41035	1.5708	0	0	0.777835	-0.329879	0.592804	0.99554	1.5708	0	0
5.3	2.29375	1.39906	-0.729061	0.722607	1.20264	0.986712	-0.120908	0.145648	-0.223585	0.225182	0.11119	0	0	0.14397	-0.159898	-0.166039	0.472123	0.109435	0	0	-0.29813	0.160796	0.10835	0.58719	-0.189296	0.342421	1.41115	1.5708	0	0	0.78009	-0.330034	0.593786	0.996938	1.5708	0	0
5.31	2.26069	1.40039	-0.705571	0.721889	1.20768	0.986019	-0.124154	0.139739	-0.232177	0.22166	0.121893	0	0	0.14894	-0.1539	-0.165805	0.434368	0.0958802	0	0	-0.295436	0.164778	0.113979	0.590452	-0.190911	0.340719	1.41145	1.5708	0	0	0.77971	-0.331927	0.592252	0.997587	1.5708	0	0
5.32	2.24536	1.40315	-0.692082	0.721681	1.2128	0.985278	-0.126279	0.138555	-0.231124	0.221505	0.12743	0	0	0.153569	-0.151826	-0.174048	0.395188	0.0860919	0	0	-0.292666	0.164388	0.114869	0.591846	-0.191649	0.34085	1.41139	1.5708	0	0	0.780289	-0.331632	0.592597	0.998728	1.5708	0	0
5.33	2.23057	1.40575	-0.679083	0.72138	1.21794	0.98453	-0.129066	0.137407	-0.228797	0.220489	0.132425	0	0	0.157511	-0.149434	-0.181837	0.356388	0.0749851	0	0	-0.289782	0.164026	0.115157	0.593262	-0.192934	0.341842	1.41041	1.5708	0	0	0.780171	-0.331187	0.592473	1.00036	1.5708	0	0
5.34	2.21185	1.40823	-0.661586	0.720935	1.2231	0.983721	-0.131308	0.136581	-0.227277	0.219654	0.137334	0	0	0.161848	-0.147036	-0.187645	0.318393	0.062215	0	0	-0.286168	0.164383	0.114448	0.595004	-0.194739	0.343626	1.4094	1.5708	0	0	0.779215	-0.330534	0.591298	1.00295	1.5708	0	0
5.35	2.19105	1.41065	-0.641708	0.720388	1.22827	0.982891	-0.133059	0.135699	-0.226949	0.219434	0.142415	0	0	0.166184	-0.144624	-0.191686	0.281614	0.0484143	0	0	-0.282184	0.165088	0.113076	0.596973	-0.196699	0.345507	1.40916	1.5708	0	0	0.777226	-0.329766	0.587118	1.0054	1.5708	0	0
5.36	2.1677	1.413	-0.618991	0.719747	1.23343	0.982039	-0.134205	0.13473	-0.226882	0.219928	0.147539	0	0	0.170406	-0.142185	-0.193619	0.245617	0.0339504	0	0	-0.277829	0.166165	0.111264	0.599262	-0.199368	0.348191	1.40943	1.5708	0	0	0.774441	-0.328754	0.580834	1.00807	1.5708	0	0
5.37	2.14273	1.41522	-0.594475	0.719038	1.23858	0.981174	-0.135195	0.133824	-0.226684	0.220432	0.152598	0	0	0.174351	-0.139764	-0.193697	0.210475	0.0189426	0	0	-0.27325	0.167473	0.109206	0.601654	-0.202198	0.351119	1.40958	1.5708	0	0	0.771377	-0.327464	0.574839	1.01094	1.5708	0	0
5.38	2.11351	1.41715	-0.565466	0.71822	1.24376	0.98022	-0.135575	0.133311	-0.226877	0.221228	0.157771	0	0	0.181396	-0.139035	-0.197539	0.182877	0.00835896	0	0	-0.26798	0.169415	0.1069	0.603948	-0.205231	0.354413	1.40893	1.5708	0	0	0.7685	-0.325749	0.569784	1.01333	1.5708	0	0
5.39	2.0887	1.41954	-0.541541	0.717486	1.24895	0.979402	-0.136304	0.131904	-0.225896	0.222233	0.162489	0	0	0.18135	-0.13464	-0.188273	0.143189	-0.00803658	0	0	-0.263153	0.16995	0.105151	0.606288	-0.207708	0.357898	1.40699	1.5708	0	0	0.766089	-0.323814	0.564375	1.01458	1.5708	0	0
5.4	2.06234	1.42156	-0.515721	0.716645	1.25419	0.978509	-0.13693	0.130758	-0.225977	0.223825	0.16706	0	0	0.183558	-0.132006	-0.181006	0.110715	-0.0203011	0	0	-0.257994	0.170951	0.103081	0.608863	-0.21009	0.361707	1.40437	1.5708	0	0	0.763535	-0.321771	0.558012	1.01516	1.5708	0	0
5.41	2.03513	1.42332	-0.489309	0.715792	1.25948	0.977598	-0.137483	0.129682	-0.226207	0.225749	0.171427	0	0	0.185317	-0.129987	-0.171857	0.0801243	-0.0309862	0	0	-0.252737	0.172091	0.101477	0.611643	-0.212835	0.366024	1.40187	1.5708	0	0	0.760811	-0.31959	0.550847	1.01566	1.5708	0	0
